<?xml version="1.0" ?><svg width="50px" height="50px" viewBox="0 0 32 32" xmlns="http://www.w3.org/2000/svg"><defs><style>.cls-1{fill:#f2f2f2;}.cls-2{fill:#212223;}.cls-3{fill:#f2f2f2;}</style></defs><title/><g data-name="01" id="_01"><circle class="cls-1" cx="16" cy="16" r="13"/><path class="cls-2" d="M16,30A14,14,0,1,1,30,16a1,1,0,0,1-2,0,12,12,0,1,0-.52,3.52,1,1,0,1,1,1.91.58A13.92,13.92,0,0,1,16,30Z"/><rect class="cls-3" height="8" width="8" x="12" y="12"/><path class="cls-2" d="M20,21H12a1,1,0,0,1-1-1V12a1,1,0,0,1,1-1h8a1,1,0,0,1,1,1v8A1,1,0,0,1,20,21Zm-7-2h6V13H13Z"/></g></svg>