<?xml version="1.0" ?><svg width="50px" height="50px" viewBox="0 0 32 32" xmlns="http://www.w3.org/2000/svg"><defs><style>.cls-1{fill:#f2f2f2;}.cls-2{fill:#212223;}</style></defs><title/><g data-name="01" id="_01"><circle class="cls-1" cx="16" cy="16" r="13"/><path class="cls-2" d="M16,30A14,14,0,1,1,30,16a1,1,0,0,1-2,0,12,12,0,1,0-.52,3.52,1,1,0,1,1,1.91.58A13.92,13.92,0,0,1,16,30Z"/><path class="cls-2" d="M13.67,20.5a1,1,0,0,1-1-1v-7a1,1,0,0,1,2,0v7A1,1,0,0,1,13.67,20.5Z"/><path class="cls-2" d="M18.33,20.5a1,1,0,0,1-1-1v-7a1,1,0,0,1,2,0v7A1,1,0,0,1,18.33,20.5Z"/></g></svg>